<?xml version="1.0" encoding="UTF-8"?><svg id="Layer_1" xmlns="http://www.w3.org/2000/svg" xmlns:xlink="http://www.w3.org/1999/xlink" viewBox="0 0 1366 768"><defs><filter id="drop-shadow-1" filterUnits="userSpaceOnUse"><feOffset dx="2" dy="2"/><feGaussianBlur result="blur" stdDeviation="2"/><feFlood flood-color="#169dd8" flood-opacity=".75"/><feComposite in2="blur" operator="in"/><feComposite in="SourceGraphic"/></filter></defs><g style="filter:url(#drop-shadow-1);"><path d="m414.96,200.57c-1.55,20.83-18.25,42.37-58.86,46.57,12.86,16.34,44.83,12.22,70.31-5.67l-13.63,25.68c-17.25,23.98-39.97,32.38-66.29,28.36-33.27-6.26-54.97-37.54-53.56-71.43,3.04-73.1,127.23-93.26,122.03-23.5Zm-63.29,39.97c12.28-10.15,16-28.46,14.86-44.24-1.13-15.5-6.96-28.56-14-29.03-6.81-.46-11.41,19.62-10.28,40,.69,12.55,3.56,25.21,9.43,33.27Z" style="fill:#339ecc; stroke-width:0px;"/><path d="m488.92,277.98c-9.12,13.21-23.94,21.8-44.12,20.36-31.28-.92-43.9-36.12-18.39-56.88,15.37-11.67,39.76-12.57,62.33-12.64,0-9.96.02-19.95.02-29.94,0-38.79-33.97-42.17-40.81-25.22,1.39-.23,2.82-.36,4.28-.36,14.32,0,25.92,11.61,25.92,25.92,0,6.09-2.1,11.68-5.61,16.1-4.46,6.25-11.79,10.55-21.59,10.47-13.09-.11-28.9-8.59-28.9-29.48,0-52.32,110.58-54.73,113.91,11.15.69,13.75,1.26,27.18,1.26,40.97,0,28.39,7.63,45.6,23.35,55.54,38.42,24.31,66.71,24.11,62.33-3.08,47.38,1.15,39.44,56.56,5.82,57.1-27.32.44-42.47-28.45-72.34-45.47-21.27-12.13-43.46-17.75-67.47-17.81v-16.73Zm-.18-43.79c-10.78,1.29-18.14,9.14-21.67,17.79-4.63,11.35-.4,22.34,5.5,26.35,6.41,4.36,14.78.49,15.88-20.07.18-3.33.28-19.99.28-24.07Z" style="fill:#339ecc; stroke-width:0px;"/><path d="m723.53,289.49v5.03c-38.03-7.22-60.39-7.18-96.65,0v-5.03c16.92-4.37,22.26-22.07,23.71-41.16,1.31-17.2,1.31-21.53,0-38.75-.95-12.46-3.55-24.32-9.95-32.28-10.21-9.59-26.78-12.49-47.81-12.31,0,27.61.45,55.6.73,83.34.19,19.14,6.79,36.79,23.71,41.16v5.03h-37.79c-18.93,0-34.42-15.49-34.42-34.42,0-15.59,0-30.55.12-46.12-.95-17.72-4.13-43.38-24.55-48.65,0-1.83,0-3.67,0-5.5,40.57-8.37,63.64-26.74,67.05-56.34h5.16v56.34c21.21,0,35.56,3.21,46.4,6.27,29.46,5.85,84,13.41,84-30.14,0-21.22-17.03-38.47-38.17-38.82,10.98,4.02,18.81,14.56,18.81,26.93,0,15.84-12.83,28.67-28.67,28.67s-28.67-12.83-28.67-28.67c0-10.78,5.95-20.16,14.74-25.06,6.99-4.46,15.29-7.05,24.2-7.05,24.89,0,45.06,20.17,45.06,45.06,0,31.49-27.58,31.29-30.71,72.56-1.31,17.22-1.31,21.55,0,38.75,1.45,19.09,6.8,36.79,23.72,41.16Z" style="fill:#339ecc; stroke-width:0px;"/><path d="m757.78,244.98l-6.92-41.97c-3.2-19.42-16.83-49.4-37.86-29.12l3.22-12.86c12.82-17.42,51.29,8.06,74.51,2.01l11.04,66.86c3.07,18.59,6.86,31.98,17.35,33.55,4.92.74,10.2-5.39,14.55-22.83l7.52-30.12c1.28-5.13,3.18-15.03.43-16.88-11.82,10.68-30.55,8.3-39.22-5.23-3.28-5.12-4.53-10.96-3.97-16.58,1.24-24.92,36.91-35.99,52.77-11.24,8.82,13.76-1.19,35.28-4.91,49.93-1.44,5.66-4.45,17.59-7.95,31.54-5.66,22.49-20.07,60.49-47.88,58.02-25.03-2.22-28.1-27.32-32.68-55.08Z" style="fill:#339ecc; stroke-width:0px;"/><path d="m973.46,179.27c5.49,5.81,9.1,12.7,10.06,20.42.72,5.73.01,8.16-1.91,8.71-2.03.58-17-5.11-25.84-4.18-28.41,2.99-59.65,36.26-38.21,62.54,14.85,18.2,46.42,24.05,55.18-5.89-14.24,7.2-34.77.34-39.57-15-1.82-5.81-1.49-11.77.54-17.04,2.38-7.29,8.1-13.59,17.48-16.45,12.52-3.8,31.88-.9,36.39,19.5,5.04,22.83-10.48,46.72-30.45,58.09-24.27,13.81-56.37,11.15-81.93-8.56-27.4-19.88-33.66-57.43-17.9-87.47,23.84-45.46,90.46-41.87,116.17-14.66Zm-70.1,54.65c8.1-26.53,34.68-35.5,36.88-50.28,1.09-7.3-.26-12.72-4.8-15.6-5.76-3.65-18.7,12.86-26.39,31.77-4.73,11.64-7.55,24.32-5.69,34.11Z" style="fill:#339ecc; stroke-width:0px;"/><path d="m627.28,413.02c0,50.31-54.55,85.57-101.44,84.67-42.57-.82-73.97-27.53-123.23-19.69v-5.03c16.92-4.37,22.26-22.07,23.71-41.16,1.31-17.2,1.31-44.84,0-62.06-1.45-19.09-6.79-36.79-23.71-41.16v-5.05c36.85,5.22,59.21,5.05,96.65,0v5.05c-16.92,4.37-22.26,22.07-23.71,41.16-1.31,17.21-1.3,66.1,0,83.29,1.97,25.9,25,36.89,48.09,37.99,42.34,2,52.68-37.89,52.96-78.57.29-43.12-8.77-64.96-17.69-64.28-8.37.64-16.62,21.11-16.9,62.44-.23,33.9,5.65,54.31,12.62,60.56-11.59,8.76-31.2,2.53-43.84-10.04-11.76-11.7-19.48-28.92-19.48-51.93,0-44.06,33.8-67.54,67.69-67.89,34.09-.35,68.28,22.69,68.28,71.7Z" style="fill:#339ecc; stroke-width:0px;"/><path d="m727.05,350.15c-2.57-6.21-8.76-9.75-15.57-9.86-43.58-.7-37.36,109.73,20.92,108.91,26.32-.37,63.26-23.43,111.03-89.67,17.38-24.09,42.06-47.9,62.13-42.24,15.54,4.39,22.19,27.33,2.22,38.95-.94-6.61-8.33-11.48-14.62-10.87-13.55,1.31-25.7,8.94-35.65,18.01,2.43-.44,4.84-.54,7.21-.34,37.99,3.31,32.14,55.69,38.9,79.95,3.22,11.54,9.37,20.67,20.87,23.64v5.03c-31.16-6.24-51.34-7.03-73.17.09,0-14.77.06-29.55.06-44.31,0-14.1-6.29-25.88-13.15-27.84-6.2-1.77-14.05,6.11-15.98,23.79-.13,14.81-.33,25.14-.33,48.37-.17,0-.35,0-.53,0-37.5.18-43.45,19.05-71.57,18.92v-5.03c17.61-4.55,22.83-16.11,23.99-32.46v-4.42c-22.27,19.08-51.17,31.92-89.3,25.95-33.27-6.43-54.97-38.48-53.56-73.22,1.79-44.11,43.08-71.53,81.62-67.03,22.85,2.67,40.41,16.92,40.41,38.71,0,19.88-13.95,28.67-26.48,29.75-1.06.13-2.14.2-3.23.2-14.7,0-26.62-11.92-26.62-26.62s11.92-26.63,26.62-26.63c1.27,0,2.53.09,3.75.26Zm46.79,61.81c.08-13.79.23-35.7-.64-47.13-1.45-19.06-6.79-38-23.71-42.36v-5.03c29.09,3.6,49.03,4.36,72.9-.09v26.57l-.21,29.46c-17.85,21.46-33.95,36.47-48.33,46.35v-7.76h0Z" style="fill:#339ecc; stroke-width:0px;"/><path d="m509.31,656.91v-5.18c16.92-4.36,22.26-23.15,23.72-42.21,1.31-17.18,1.31-42.25,0-59.45-1.45-19.06-6.8-38-23.72-42.36v-5.03c18.07-.08,32.64-.13,47.11-.13v-.1h69.44c47.53,0,54.47,54.9,20.89,71.01,47.49,7.72,44.81,83.57-8.06,83.57h-90.67c-11.82-.02-24.12-.06-38.71-.13Zm72.44-79.04c-.08,11.39-.11,22.69-.04,32.15v41.71h15.75c23.64,0,31.94-18.84,31.99-36.7.04-17.93-8.26-37.16-31.99-37.16h-15.71Zm.46-48.71c-.08,10.36-.29,26.82-.42,43.66h2.7c28.43,0,35.89-16.61,35.6-32.98-.28-15.93-5.9-32.12-35.44-32.12h-2.43v21.45Z" style="fill:#339ecc; stroke-width:0px;"/><path d="m1144.28,548.22c-1.55,20.83-18.25,42.37-58.86,46.57,12.86,16.34,34.19,23.16,55.65,10.39l3.11,6.84c-17.25,23.98-42.05,31.93-68.37,27.91-33.27-6.26-54.97-34.32-53.56-68.21,3.04-73.1,127.23-93.26,122.03-23.5Zm-63.29,39.97c12.28-10.15,16-28.46,14.86-44.24-1.13-15.5-6.96-28.56-14-29.03-6.81-.46-11.41,19.62-10.28,40,.69,12.55,3.56,25.21,9.43,33.27Z" style="fill:#339ecc; stroke-width:0px;"/><path d="m1094.82,676.04c-34.08-.12-116.79-6.55-125.09-73.35-.87-7.01,0-25.49.12-41.06-.79-14.75-3.13-35.01-15.68-44.42-11.25-7.87-53.66-9.64-61.48,1.28-2.71,3.78-1.85,8.82,3.77,13.18,14.96,11.61,35.94,29.16,38.53,31.06,31.05,22.74,28.07,66.49-7.64,81.19-24.54,10.1-60.19,7.95-78.54-3.63-23.8-15.01-23.35-54.44,6.04-59.73,2.15-.55,4.4-.84,6.73-.84,14.9,0,26.98,12.08,26.98,26.98s-12.08,26.98-26.98,26.98c-.81,0-1.6-.04-2.39-.11,2.2,4,6.03,7.42,11.19,8.72,14.99,3.77,35.65-6.65,35.86-25.19.26-23.45-26.13-38.01-47.92-51.16-9.86-5.95-18.5-12.4-21.77-21.76-3.45-9.92-.91-22.84,11.61-31.98,24.61-17.97,84.99-1.09,116.44-9.9,20.22-4.62,45.58-17.45,45.58-43.89,0-21.22-17.03-38.47-38.17-38.82,10.98,4.02,18.81,14.56,18.81,26.93,0,15.83-12.83,28.67-28.67,28.67s-28.67-12.83-28.67-28.67c0-10.78,5.95-20.16,14.74-25.06,6.99-4.46,15.29-7.05,24.2-7.05,22.95,0,41.89,17.16,44.7,39.34.24,1.87.36,3.78.36,5.71h0s.03,0,.03,0v48.01h24.44v5.16h-24.44c0,27.61-8.05,63.46.72,89.78,16.15,48.44,55.99,48.39,73.45,47.67,69.48-2.87,67.78-41.82,67.78-74.94,0-17.02.03-18.97-1.64-36.46-2.13-22.24-27.13-37.39-46.98-42.1l-.11-5.9c22.64,4.65,57.87,1.67,75.35.8,16.12-.81,31.41-7.92,52.19-8.33,6.14-.21,12.22.36,18.23,1.82,21.01,5.1,37.26,19.73,37.66,40.45.39,20.06-12.84,30.2-26.22,33.02-2.45.68-5.03,1.06-7.68,1.11-17.16.33-31.34-13.31-31.67-30.46-.33-17.16,13.31-31.34,30.46-31.67.9-.02,1.79,0,2.67.06-3.74-5.21-10.26-7.92-17.2-7.49-23.33,1.42-28.19,28.66-29.26,47.58-1.92,33.97.2,56.57.86,90.49-37.68,26.88-80.4,48.12-121.3,47.97Z" style="fill:#339ecc; stroke-width:0px;"/><path d="m773.08,505.2c18.29-.05,34.25-.05,52.61,0v65.74c-.37,9.9.05,21.07.15,31.02.21,20.9,7.42,40.18,25.9,44.96v5.49h-41.28c-20.68,0-37.6-16.92-37.6-37.6v-2.59c-12.26,31.18-30.9,44.09-47.52,42.62-23.4-2.07-39.47-28.02-38.34-62.97-.1-9.93-.45-27.41-1.04-35.29-1.59-21.18-7.42-40.83-25.9-45.68v-5.58c30.99-.14,52.56-.18,79.11-.1v64.62c-.08,18.46,3.1,40.36,18.87,44.44,11.97,3.1,14.65-33.81,15.04-44.39v-64.68Z" style="fill:#339ecc; stroke-width:0px;"/><path d="m361.54,108.3c15.54,4.39,25.16,28.85,5.18,40.47-.94-6.61-41.23-24.84-76.88,26.71,0,0-.15,6.59-1.38,22.78-2.21,29.07-.98,59.49-.98,88.57-24.09.07-62.41-.79-71.95,0,0,0,19.08-18.08,23.71-46.29,4.23-25.76,8.24-69.04-23.71-83.45v-5.05c24.84-2.05,50.89,14,82.7-11.45,12.91-10.33,43.25-37.96,63.32-32.29Z" style="fill:#339ecc; stroke-width:0px;"/><path d="m71.93,218.27c3.1-75.66,100.45-99.57,143.59-56.79l-7.95,43.03h-6.3c0-23.81-9.27-57.46-35.66-57.46-29.16,0-40.02,38.11-40.34,73.87-.33,36.59,11.21,77.04,41.01,77.04,25.74,0,35-32.11,35-54.7h6.31l7.57,40.33c-51.71,41.21-146.66,18.53-143.22-65.31Z" style="fill:#339ecc; stroke-width:0px;"/><path d="m247.55,497.81c16.92-4.36,22.26-22.52,23.71-41.58,1.31-17.18,1.31-71.89,0-89.08-1.22-15.99-5.18-31.89-16.41-39.18-9.81-4.08-23.3.1-26.65,7.34,1.43-.25,2.91-.39,4.41-.39,13.97,0,25.3,11.33,25.3,25.3,0,4.44-1.15,8.62-3.16,12.25-4,7.88-12.15,13.73-23.78,13.63-13.09-.1-28.9-8.28-28.9-28.43,0-26.43,29.62-39.17,52.6-37.96,3.19-.01,39.99-.04,39.99-.2h69.44c47.53,0,54.48,54.9,20.89,71.01,47.49,7.72,44.81,83.57-8.06,83.57-19,0-37.99.01-56.99.01-31.53,0-44.49,27.92-72.38,27.59v-3.91Zm72.44-102.86c-.08,11.39-.11,22.69-.04,32.15v41.71h15.75c23.64,0,31.94-18.84,31.98-36.7.04-17.93-8.26-37.16-31.98-37.16h-15.71Zm.46-70.16v21.45c-.08,10.36-.29,26.82-.42,43.66h2.69c28.43,0,35.89-16.61,35.6-32.98-.28-15.93-5.89-32.12-35.44-32.12h-2.42Z" style="fill:#339ecc; stroke-width:0px;"/></g></svg>