<?xml version="1.0" encoding="utf-8"?>
<!-- Generator: Adobe Illustrator 27.8.1, SVG Export Plug-In . SVG Version: 6.00 Build 0)  -->
<svg version="1.1" id="Layer_1" xmlns="http://www.w3.org/2000/svg" xmlns:xlink="http://www.w3.org/1999/xlink" x="0px" y="0px"
	 viewBox="0 0 1366 768" style="enable-background:new 0 0 1366 768;" xml:space="preserve">
<style type="text/css">
	.st0{fill:#0084B2;}
</style>
<g>
	
		<image style="overflow:visible;opacity:0.75;" width="1248" height="610" xlink:href="D7331710132EC467.png"  transform="matrix(1 0 0 1 61 81)">
	</image>
	<g>
		<g>
			<path class="st0" d="M415,200.6c-1.5,20.8-18.2,42.4-58.9,46.6c12.9,16.3,44.8,12.2,70.3-5.7l-13.6,25.7
				c-17.2,24-40,32.4-66.3,28.4c-33.3-6.3-55-37.5-53.6-71.4C296,151,420.2,130.8,415,200.6L415,200.6z M351.7,240.5
				c12.3-10.1,16-28.5,14.9-44.2c-1.1-15.5-7-28.6-14-29c-6.8-0.5-11.4,19.6-10.3,40C342.9,219.8,345.8,232.5,351.7,240.5
				L351.7,240.5z"/>
			<path class="st0" d="M488.9,278c-9.1,13.2-23.9,21.8-44.1,20.4c-31.3-0.9-43.9-36.1-18.4-56.9c15.4-11.7,39.8-12.6,62.3-12.6
				c0-10,0-19.9,0-29.9c0-38.8-34-42.2-40.8-25.2c1.4-0.2,2.8-0.4,4.3-0.4c14.3,0,25.9,11.6,25.9,25.9c0,6.1-2.1,11.7-5.6,16.1
				c-4.5,6.2-11.8,10.6-21.6,10.5c-13.1-0.1-28.9-8.6-28.9-29.5c0-52.3,110.6-54.7,113.9,11.1c0.7,13.8,1.3,27.2,1.3,41
				c0,28.4,7.6,45.6,23.3,55.5c38.4,24.3,66.7,24.1,62.3-3.1c47.4,1.1,39.4,56.6,5.8,57.1c-27.3,0.4-42.5-28.5-72.3-45.5
				c-21.3-12.1-43.5-17.8-67.5-17.8L488.9,278L488.9,278z M488.7,234.2c-10.8,1.3-18.1,9.1-21.7,17.8c-4.6,11.4-0.4,22.3,5.5,26.4
				c6.4,4.4,14.8,0.5,15.9-20.1C488.6,254.9,488.7,238.3,488.7,234.2L488.7,234.2z"/>
			<path class="st0" d="M723.5,289.5v5c-38-7.2-60.4-7.2-96.7,0v-5c16.9-4.4,22.3-22.1,23.7-41.2c1.3-17.2,1.3-21.5,0-38.8
				c-1-12.5-3.5-24.3-10-32.3c-10.2-9.6-26.8-12.5-47.8-12.3c0,27.6,0.5,55.6,0.7,83.3c0.2,19.1,6.8,36.8,23.7,41.2v5h-37.8
				c-18.9,0-34.4-15.5-34.4-34.4c0-15.6,0-30.6,0.1-46.1c-1-17.7-4.1-43.4-24.5-48.6c0-1.8,0-3.7,0-5.5c40.6-8.4,63.6-26.7,67-56.3
				h5.2v56.3c21.2,0,35.6,3.2,46.4,6.3c29.5,5.9,84,13.4,84-30.1c0-21.2-17-38.5-38.2-38.8c11,4,18.8,14.6,18.8,26.9
				c0,15.8-12.8,28.7-28.7,28.7s-28.7-12.8-28.7-28.7c0-10.8,6-20.2,14.7-25.1c7-4.5,15.3-7.1,24.2-7.1c24.9,0,45.1,20.2,45.1,45.1
				c0,31.5-27.6,31.3-30.7,72.6c-1.3,17.2-1.3,21.6,0,38.8C701.3,267.4,706.6,285.1,723.5,289.5L723.5,289.5z"/>
			<path class="st0" d="M757.8,245l-6.9-42c-3.2-19.4-16.8-49.4-37.9-29.1l3.2-12.9c12.8-17.4,51.3,8.1,74.5,2l11,66.9
				c3.1,18.6,6.9,32,17.3,33.5c4.9,0.7,10.2-5.4,14.5-22.8l7.5-30.1c1.3-5.1,3.2-15,0.4-16.9c-11.8,10.7-30.5,8.3-39.2-5.2
				c-3.3-5.1-4.5-11-4-16.6c1.2-24.9,36.9-36,52.8-11.2c8.8,13.8-1.2,35.3-4.9,49.9c-1.4,5.7-4.5,17.6-8,31.5
				c-5.7,22.5-20.1,60.5-47.9,58C765.4,297.8,762.4,272.7,757.8,245L757.8,245z"/>
			<path class="st0" d="M973.5,179.3c5.5,5.8,9.1,12.7,10.1,20.4c0.7,5.7,0,8.2-1.9,8.7c-2,0.6-17-5.1-25.8-4.2
				c-28.4,3-59.7,36.3-38.2,62.5c14.8,18.2,46.4,24,55.2-5.9c-14.2,7.2-34.8,0.3-39.6-15c-1.8-5.8-1.5-11.8,0.5-17
				c2.4-7.3,8.1-13.6,17.5-16.4c12.5-3.8,31.9-0.9,36.4,19.5c5,22.8-10.5,46.7-30.5,58.1c-24.3,13.8-56.4,11.1-81.9-8.6
				c-27.4-19.9-33.7-57.4-17.9-87.5C881.1,148.5,947.8,152.1,973.5,179.3L973.5,179.3z M903.4,233.9c8.1-26.5,34.7-35.5,36.9-50.3
				c1.1-7.3-0.3-12.7-4.8-15.6c-5.8-3.6-18.7,12.9-26.4,31.8C904.3,211.5,901.5,224.1,903.4,233.9z"/>
			<path class="st0" d="M627.3,413c0,50.3-54.5,85.6-101.4,84.7c-42.6-0.8-74-27.5-123.2-19.7v-5c16.9-4.4,22.3-22.1,23.7-41.2
				c1.3-17.2,1.3-44.8,0-62.1c-1.5-19.1-6.8-36.8-23.7-41.2v-5c36.9,5.2,59.2,5,96.6,0v5c-16.9,4.4-22.3,22.1-23.7,41.2
				c-1.3,17.2-1.3,66.1,0,83.3c2,25.9,25,36.9,48.1,38c42.3,2,52.7-37.9,53-78.6c0.3-43.1-8.8-65-17.7-64.3
				c-8.4,0.6-16.6,21.1-16.9,62.4c-0.2,33.9,5.7,54.3,12.6,60.6c-11.6,8.8-31.2,2.5-43.8-10c-11.8-11.7-19.5-28.9-19.5-51.9
				c0-44.1,33.8-67.5,67.7-67.9C593.1,341,627.3,364,627.3,413L627.3,413z"/>
			<path class="st0" d="M727,350.1c-2.6-6.2-8.8-9.8-15.6-9.9c-43.6-0.7-37.4,109.7,20.9,108.9c26.3-0.4,63.3-23.4,111-89.7
				c17.4-24.1,42.1-47.9,62.1-42.2c15.5,4.4,22.2,27.3,2.2,39c-0.9-6.6-8.3-11.5-14.6-10.9c-13.5,1.3-25.7,8.9-35.7,18
				c2.4-0.4,4.8-0.5,7.2-0.3c38,3.3,32.1,55.7,38.9,79.9c3.2,11.5,9.4,20.7,20.9,23.6v5c-31.2-6.2-51.3-7-73.2,0.1
				c0-14.8,0.1-29.5,0.1-44.3c0-14.1-6.3-25.9-13.2-27.8c-6.2-1.8-14,6.1-16,23.8c-0.1,14.8-0.3,25.1-0.3,48.4c-0.2,0-0.3,0-0.5,0
				c-37.5,0.2-43.5,19-71.6,18.9v-5c17.6-4.5,22.8-16.1,24-32.5v-4.4c-22.3,19.1-51.2,31.9-89.3,26c-33.3-6.4-55-38.5-53.6-73.2
				c1.8-44.1,43.1-71.5,81.6-67c22.8,2.7,40.4,16.9,40.4,38.7c0,19.9-14,28.7-26.5,29.8c-1.1,0.1-2.1,0.2-3.2,0.2
				c-14.7,0-26.6-11.9-26.6-26.6s11.9-26.6,26.6-26.6C724.5,349.9,725.8,350,727,350.1L727,350.1z M773.8,412
				c0.1-13.8,0.2-35.7-0.6-47.1c-1.5-19.1-6.8-38-23.7-42.4v-5c29.1,3.6,49,4.4,72.9-0.1v26.6l-0.2,29.5
				c-17.8,21.5-34,36.5-48.3,46.4L773.8,412L773.8,412L773.8,412z"/>
			<path class="st0" d="M509.3,656.9v-5.2c16.9-4.4,22.3-23.2,23.7-42.2c1.3-17.2,1.3-42.2,0-59.5c-1.5-19.1-6.8-38-23.7-42.4v-5
				c18.1-0.1,32.6-0.1,47.1-0.1v-0.1h69.4c47.5,0,54.5,54.9,20.9,71c47.5,7.7,44.8,83.6-8.1,83.6H548
				C536.2,657,523.9,657,509.3,656.9L509.3,656.9z M581.8,577.9c-0.1,11.4-0.1,22.7,0,32.2v41.7h15.8c23.6,0,31.9-18.8,32-36.7
				c0-17.9-8.3-37.2-32-37.2L581.8,577.9L581.8,577.9z M582.2,529.2c-0.1,10.4-0.3,26.8-0.4,43.7h2.7c28.4,0,35.9-16.6,35.6-33
				c-0.3-15.9-5.9-32.1-35.4-32.1h-2.4L582.2,529.2L582.2,529.2z"/>
			<path class="st0" d="M1144.3,548.2c-1.6,20.8-18.2,42.4-58.9,46.6c12.9,16.3,34.2,23.2,55.7,10.4l3.1,6.8
				c-17.2,24-42.1,31.9-68.4,27.9c-33.3-6.3-55-34.3-53.6-68.2C1025.3,498.6,1149.5,478.5,1144.3,548.2z M1081,588.2
				c12.3-10.2,16-28.5,14.9-44.2c-1.1-15.5-7-28.6-14-29c-6.8-0.5-11.4,19.6-10.3,40C1072.3,567.5,1075.1,580.1,1081,588.2
				L1081,588.2z"/>
			<path class="st0" d="M1094.8,676c-34.1-0.1-116.8-6.5-125.1-73.3c-0.9-7,0-25.5,0.1-41.1c-0.8-14.8-3.1-35-15.7-44.4
				c-11.2-7.9-53.7-9.6-61.5,1.3c-2.7,3.8-1.8,8.8,3.8,13.2c15,11.6,35.9,29.2,38.5,31.1c31,22.7,28.1,66.5-7.6,81.2
				c-24.5,10.1-60.2,8-78.5-3.6c-23.8-15-23.3-54.4,6-59.7c2.2-0.5,4.4-0.8,6.7-0.8c14.9,0,27,12.1,27,27s-12.1,27-27,27
				c-0.8,0-1.6,0-2.4-0.1c2.2,4,6,7.4,11.2,8.7c15,3.8,35.7-6.7,35.9-25.2c0.3-23.5-26.1-38-47.9-51.2c-9.9-6-18.5-12.4-21.8-21.8
				c-3.5-9.9-0.9-22.8,11.6-32c24.6-18,85-1.1,116.4-9.9c20.2-4.6,45.6-17.5,45.6-43.9c0-21.2-17-38.5-38.2-38.8
				c11,4,18.8,14.6,18.8,26.9c0,15.8-12.8,28.7-28.7,28.7s-28.7-12.8-28.7-28.7c0-10.8,6-20.2,14.7-25.1c7-4.5,15.3-7,24.2-7
				c23,0,41.9,17.2,44.7,39.3c0.2,1.9,0.4,3.8,0.4,5.7l0,0h0v48h24.4v5.2h-24.4c0,27.6-8,63.5,0.7,89.8c16.1,48.4,56,48.4,73.5,47.7
				c69.5-2.9,67.8-41.8,67.8-74.9c0-17,0-19-1.6-36.5c-2.1-22.2-27.1-37.4-47-42.1l-0.1-5.9c22.6,4.6,57.9,1.7,75.3,0.8
				c16.1-0.8,31.4-7.9,52.2-8.3c6.1-0.2,12.2,0.4,18.2,1.8c21,5.1,37.3,19.7,37.7,40.4c0.4,20.1-12.8,30.2-26.2,33
				c-2.4,0.7-5,1.1-7.7,1.1c-17.2,0.3-31.3-13.3-31.7-30.5c-0.3-17.2,13.3-31.3,30.5-31.7c0.9,0,1.8,0,2.7,0.1
				c-3.7-5.2-10.3-7.9-17.2-7.5c-23.3,1.4-28.2,28.7-29.3,47.6c-1.9,34,0.2,56.6,0.9,90.5C1178.4,654.9,1135.7,676.2,1094.8,676
				L1094.8,676z"/>
			<path class="st0" d="M773.1,505.2c18.3,0,34.2,0,52.6,0v65.7c-0.4,9.9,0,21.1,0.2,31c0.2,20.9,7.4,40.2,25.9,45v5.5h-41.3
				c-20.7,0-37.6-16.9-37.6-37.6v-2.6c-12.3,31.2-30.9,44.1-47.5,42.6c-23.4-2.1-39.5-28-38.3-63c-0.1-9.9-0.5-27.4-1-35.3
				c-1.6-21.2-7.4-40.8-25.9-45.7v-5.6c31-0.1,52.6-0.2,79.1-0.1v64.6c-0.1,18.5,3.1,40.4,18.9,44.4c12,3.1,14.7-33.8,15-44.4V505.2
				L773.1,505.2z"/>
			<path class="st0" d="M361.5,108.3c15.5,4.4,25.2,28.9,5.2,40.5c-0.9-6.6-41.2-24.8-76.9,26.7c0,0-0.1,6.6-1.4,22.8
				c-2.2,29.1-1,59.5-1,88.6c-24.1,0.1-62.4-0.8-71.9,0c0,0,19.1-18.1,23.7-46.3c4.2-25.8,8.2-69-23.7-83.4V152
				c24.8-2.1,50.9,14,82.7-11.4C311.1,130.3,341.5,102.6,361.5,108.3L361.5,108.3z"/>
			<path class="st0" d="M71.9,218.3c3.1-75.7,100.5-99.6,143.6-56.8l-7.9,43h-6.3c0-23.8-9.3-57.5-35.7-57.5
				c-29.2,0-40,38.1-40.3,73.9c-0.3,36.6,11.2,77,41,77c25.7,0,35-32.1,35-54.7h6.3l7.6,40.3C163.4,324.8,68.5,302.1,71.9,218.3
				L71.9,218.3z"/>
			<path class="st0" d="M247.6,497.8c16.9-4.4,22.3-22.5,23.7-41.6c1.3-17.2,1.3-71.9,0-89.1c-1.2-16-5.2-31.9-16.4-39.2
				c-9.8-4.1-23.3,0.1-26.6,7.3c1.4-0.2,2.9-0.4,4.4-0.4c14,0,25.3,11.3,25.3,25.3c0,4.4-1.1,8.6-3.2,12.2
				c-4,7.9-12.1,13.7-23.8,13.6c-13.1-0.1-28.9-8.3-28.9-28.4c0-26.4,29.6-39.2,52.6-38c3.2,0,40,0,40-0.2h69.4
				c47.5,0,54.5,54.9,20.9,71c47.5,7.7,44.8,83.6-8.1,83.6c-19,0-38,0-57,0c-31.5,0-44.5,27.9-72.4,27.6L247.6,497.8L247.6,497.8z
				 M320,395c-0.1,11.4-0.1,22.7,0,32.1v41.7h15.8c23.6,0,31.9-18.8,32-36.7c0-17.9-8.3-37.2-32-37.2L320,395L320,395z M320.4,324.8
				v21.5c-0.1,10.4-0.3,26.8-0.4,43.7h2.7c28.4,0,35.9-16.6,35.6-33c-0.3-15.9-5.9-32.1-35.4-32.1L320.4,324.8L320.4,324.8z"/>
		</g>
	</g>
</g>
</svg>
